<svg xmlns="http://www.w3.org/2000/svg" viewBox="0 0 96 96" fill="none" stroke="#b98f9b" stroke-width="4.5" stroke-linecap="round" stroke-linejoin="round">
  <path d="M43 85c-8-9-14-18-18-28-2.3-5.8 4.6-9.8 8.3-5.1l5.2 6.5V28a6.5 6.5 0 0 1 13 0v24"/>
  <path d="M51.5 47.5a6 6 0 0 1 12 0V55"/>
  <path d="M63.5 50.5a6 6 0 0 1 12 0v8"/>
  <path d="M75.5 58a5.8 5.8 0 0 1 11.5.7V65c0 12-7 20-18 20H43"/>
  <path d="M27 18l-5-6"/>
  <path d="M43 12V4"/>
  <path d="M60 18l6-6"/>
  <path d="M20 34h-8"/>
</svg>
